<svg width="24" height="24" viewBox="0 0 24 24" fill="none" xmlns="http://www.w3.org/2000/svg">
<path d="M19.2 7.57895H17.238C17.337 7.30158 17.4 6.99737 17.4 6.68421C17.4 5.19895 16.194 4 14.7 4C13.755 4 12.936 4.48316 12.45 5.20789L12 5.80737L11.55 5.19895C11.064 4.48316 10.245 4 9.3 4C7.806 4 6.6 5.19895 6.6 6.68421C6.6 6.99737 6.663 7.30158 6.762 7.57895H4.8C3.801 7.57895 3.009 8.37526 3.009 9.36842L3 19.2105C3 20.2037 3.801 21 4.8 21H19.2C20.199 21 21 20.2037 21 19.2105V9.36842C21 8.37526 20.199 7.57895 19.2 7.57895ZM14.7 5.78947C15.195 5.78947 15.6 6.19211 15.6 6.68421C15.6 7.17632 15.195 7.57895 14.7 7.57895C14.205 7.57895 13.8 7.17632 13.8 6.68421C13.8 6.19211 14.205 5.78947 14.7 5.78947ZM9.3 5.78947C9.795 5.78947 10.2 6.19211 10.2 6.68421C10.2 7.17632 9.795 7.57895 9.3 7.57895C8.805 7.57895 8.4 7.17632 8.4 6.68421C8.4 6.19211 8.805 5.78947 9.3 5.78947ZM19.2 19.2105H4.8V17.4211H19.2V19.2105ZM19.2 14.7368H4.8V9.36842H9.372L7.5 11.9005L8.958 12.9474L11.1 10.0484L12 8.83158L12.9 10.0484L15.042 12.9474L16.5 11.9005L14.628 9.36842H19.2V14.7368Z" fill="#FF7942"/>
</svg>
