<svg width="24" height="24" viewBox="0 0 24 24" fill="none" xmlns="http://www.w3.org/2000/svg">
<g clip-path="url(#clip0_3224_8100)">
<path d="M13.51 20.43L12 21L10.49 20.43C6.59 18.97 4 15.24 4 11.07V7C7.15 7 10.11 5.52 12 3C13.89 5.52 16.85 7 20 7V11.07C20 15.24 17.41 18.97 13.51 20.43Z" stroke="#FFAB40" stroke-width="2" stroke-linecap="round" stroke-linejoin="round"/>
<path d="M12 12C13.1046 12 14 11.1046 14 10C14 8.89543 13.1046 8 12 8C10.8954 8 10 8.89543 10 10C10 11.1046 10.8954 12 12 12Z" stroke="#FFAB40" stroke-width="2" stroke-linecap="round" stroke-linejoin="round"/>
<path d="M8 19.06V19C8 16.79 9.79 15 12 15C13.1 15 14.1 15.45 14.83 16.17C15.55 16.9 16 17.9 16 19V19.06" stroke="#FFAB40" stroke-width="2" stroke-linecap="round" stroke-linejoin="round"/>
</g>
<defs>
<clipPath id="clip0_3224_8100">
<rect width="18" height="20" fill="white" transform="translate(3 2)"/>
</clipPath>
</defs>
</svg>
