<svg width="24" height="24" viewBox="0 0 24 24" fill="none" xmlns="http://www.w3.org/2000/svg">
<path d="M18 22C17.81 22 17.61 21.94 17.45 21.83L14.27 19.71C13.54 19.9 12.78 20 12.01 20C7.04 20 3 15.96 3 11C3 6.04 7.04 2 12 2C16.96 2 21 6.04 21 11C21 13.33 20.08 15.58 18.47 17.25L18.99 20.86C19.05 21.25 18.87 21.64 18.53 21.85C18.37 21.95 18.18 22 18 22ZM14.43 17.62C14.63 17.62 14.82 17.68 14.98 17.79L16.69 18.93L16.42 17.04C16.37 16.71 16.49 16.38 16.73 16.16C18.17 14.84 19 12.96 19 11.01C19 7.15 15.86 4.01 12 4.01C8.14 4.01 5 7.14 5 11C5 14.86 8.14 18 12 18C12.73 18 13.44 17.89 14.12 17.67C14.22 17.64 14.33 17.62 14.43 17.62Z" fill="#FFAB40"/>
<path d="M12 13C11.45 13 11 12.55 11 12V7C11 6.45 11.45 6 12 6C12.55 6 13 6.45 13 7V12C13 12.55 12.55 13 12 13Z" fill="#FFAB40"/>
<path d="M12 16C11.73 16 11.48 15.9 11.29 15.71C11.1 15.52 11 15.27 11 15.01C11 14.75 11.1 14.49 11.29 14.3C11.67 13.92 12.33 13.92 12.71 14.3C12.9 14.49 13 14.74 13 15.01C13 15.28 12.9 15.52 12.71 15.71C12.52 15.9 12.27 16 12 16Z" fill="#FFAB40"/>
</svg>
