<svg width="22" height="22" viewBox="0 0 22 22" fill="none" xmlns="http://www.w3.org/2000/svg">
<path d="M19.7642 4.87482L17.1252 2.23573C16.9976 2.10787 16.846 2.00649 16.679 1.93743C16.5121 1.86837 16.3332 1.83298 16.1526 1.83332C15.7997 1.83332 15.4486 1.96715 15.18 2.23573L11.9167 5.49998H3.66667C3.42355 5.49998 3.19039 5.59656 3.01849 5.76847C2.84658 5.94038 2.75 6.17353 2.75 6.41665V18.3333C2.75 18.5764 2.84658 18.8096 3.01849 18.9815C3.19039 19.1534 3.42355 19.25 3.66667 19.25H15.5833C15.8264 19.25 16.0596 19.1534 16.2315 18.9815C16.4034 18.8096 16.5 18.5764 16.5 18.3333V10.0833L19.7642 6.81907C20.0328 6.55048 20.1667 6.19848 20.1667 5.84648C20.1667 5.49448 20.0328 5.1434 19.7642 4.87482ZM10.5417 13.4493L8.55067 11.4583L14.3193 5.68973L16.3102 7.68073L10.5417 13.4493ZM8.19408 12.2219L9.80375 13.8059L8.25 13.75L8.19408 12.2219ZM14.6667 17.4166H4.58333V7.33331H10.0833L7.16833 10.2483C6.89975 10.5169 6.73017 10.9926 6.59175 11.4299C6.44508 11.8882 6.41667 12.3979 6.41667 12.7774V15.5833H9.22258C9.60208 15.5833 10.2382 15.4916 10.6627 15.3175C11.088 15.1433 11.484 14.9994 11.7517 14.7308L14.6667 11.9166V17.4166ZM16.9583 7.03265L14.9673 5.04165L16.1526 3.8564L18.1427 5.8474L16.9583 7.03265Z" fill="#85B6FF"/>
</svg>
